<?xml version="1.0" encoding="UTF-8"?>
<svg width="24px" height="24px" viewBox="0 0 24 24" version="1.1" xmlns="http://www.w3.org/2000/svg" xmlns:xlink="http://www.w3.org/1999/xlink">
    <!-- Generator: Sketch 55.2 (78181) - https://sketchapp.com -->
    <title>0CE89830-BDDD-42B6-B763-C8F05D3919EE</title>
    <desc>Created with Sketch.</desc>
    <g id="页面1" stroke="none" stroke-width="1" fill="none" fill-rule="evenodd">
        <g id="画板" transform="translate(-500.000000, -56.000000)">
            <g id="el-icon-search" transform="translate(496.000000, 52.000000)">
                <g id="Group">
                    <rect id="Rectangle" x="0" y="0" width="32" height="32"></rect>
                    <g id="search" transform="translate(4.000000, 4.000000)" fill="#ffffff">
                        <path d="M20.2906574,19.0449827 L23.7508651,22.5051903 C23.916955,22.6897347 24,22.8973472 24,23.1280277 C24,23.3587082 23.9123414,23.561707 23.7370242,23.7370242 C23.561707,23.9123414 23.3587082,24 23.1280277,24 C22.8973472,24 22.6897347,23.916955 22.5051903,23.7508651 L19.0449827,20.2906574 C16.5905421,22.3021915 13.8685121,23.2202999 10.8788927,23.0449827 C7.88927336,22.8696655 5.29642445,21.6470588 3.10034602,19.3771626 C0.996539792,16.9965398 -0.0276816609,14.3114187 0.0276816609,11.3217993 C0.0830449827,8.33217993 1.20876586,5.69319493 3.40484429,3.40484429 C5.69319493,1.20876586 8.33217993,0.0830449827 11.3217993,0.0276816609 C14.3114187,-0.0276816609 16.9965398,0.996539792 19.3771626,3.10034602 C21.6470588,5.29642445 22.8696655,7.88927336 23.0449827,10.8788927 C23.2202999,13.8685121 22.3021915,16.5905421 20.2906574,19.0449827 Z M11.5432526,21.2871972 C14.3114187,21.2133795 16.6089965,20.2629758 18.4359862,18.4359862 C20.2629758,16.6089965 21.2133795,14.3114187 21.2871972,11.5432526 C21.2133795,8.77508651 20.2629758,6.47750865 18.4359862,4.65051903 C16.6089965,2.82352941 14.3114187,1.87312572 11.5432526,1.79930796 C8.77508651,1.87312572 6.47750865,2.82352941 4.65051903,4.65051903 C2.82352941,6.47750865 1.87312572,8.77508651 1.79930796,11.5432526 C1.87312572,14.3114187 2.82352941,16.6089965 4.65051903,18.4359862 C6.47750865,20.2629758 8.77508651,21.2133795 11.5432526,21.2871972 Z" id="形状"></path>
                    </g>
                </g>
            </g>
        </g>
    </g>
</svg>