<?xml version="1.0" encoding="utf-8"?>
<svg version="1.1" xmlns:xlink="http://www.w3.org/1999/xlink" width="202px" height="60px" xmlns="http://www.w3.org/2000/svg">
  <defs>
    <linearGradient gradientUnits="userSpaceOnUse" x1="101" y1="0" x2="101" y2="60" id="LinearGradient17">
      <stop id="Stop18" stop-color="#d8deff" offset="0" />
      <stop id="Stop19" stop-color="#f1f4ff" offset="1" />
    </linearGradient>
  </defs>
  <g transform="matrix(1 0 0 1 -1594 -193 )">
    <path d="M 0 60  L 0 44.9591765540856  C 0 44.9591765540856  25.25 41.6689964252918  39.2194805194804 30.0526461746525  C 47.051141881602 23.5402120651718  52.5987012987016 3.9997912772651  65.4532467532467 0.239585415786451  C 78.3077922077919 -3.52062044569212  82.5170798835973 38.214361215653  90.6376623376623 38.9159885624236  C 98.0273909320465 39.5544693236693  105.26009634112 18.7876593804429  112.674025974026 19.3092008561422  C 119.162627044628 19.765649021305  126.33955725876 31.3649478740185  132.611688311688 32.4699213713173  C 141.327541843635 34.005410199256  149.30230177259 5.30656918068979  157.009090909091 6.68565260689266  C 165.899577263129 8.27655150974039  171.7 37.304471764647  180.094805194805 38.9159885624236  C 188.48961038961 40.5275053602  202 24.9495096483601  202 24.9495096483601  L 202 60  L 0 60  Z " fill-rule="nonzero" fill="url(#LinearGradient17)" stroke="none" transform="matrix(1 0 0 1 1594 193 )" />
  </g>
</svg>