<svg t="1576132158834" class="icon" viewBox="0 0 1024 1024" version="1.1" xmlns="http://www.w3.org/2000/svg" p-id="8904" width="45" height="45"><path d="M800.954 544.092a327.475 327.475 0 0 1 53.473 23.45c65.004 36.393 112.702 88.637 142.603 156.877 20.787 47.329 28.61 97.054 25.907 148.582-0.901 16.302-9.155 27.566-22.733 30.74-19.804 4.69-37.52-10.833-36.127-31.744 3.83-57.364-8.704-110.878-39.424-159.436-40.94-64.8-99.164-105.39-174.407-121.16-11.653-2.437-23.47-3.256-35.164-5.08-13.23-2.109-23.512-12.942-24.495-25.6-1.126-14.397 6.656-26.623 19.968-30.924 34.837-11.366 62.976-32.358 85.75-60.682 23.9-29.737 37.765-63.898 40.653-101.909 4.076-53.821-11.325-101.683-47.145-142.479-27.361-31.191-61.583-50.893-101.95-60.068-16.813-3.81-33.976-4.505-51.158-4.546a28.18 28.18 0 0 1-27.935-22.324c-3.768-17.51 8.909-32.931 28.057-33.71 36.598-1.454 72.05 4.301 105.554 19.15 75.879 33.545 125.85 90.295 144.671 171.171 19.907 85.258-1.659 160.993-60.6 225.853-3.81 4.199-7.967 8.07-12.083 11.92-4.117 3.87-8.438 7.557-13.415 11.92z m-402.309 96.563l40.817 69.428c18.493 31.395 36.925 62.832 55.521 94.187 1.864 3.113 1.782 4.813-0.922 7.475a18264.801 18264.801 0 0 0-91.934 90.583c-2.663 2.642-4.137 3.093-7.066 0.144a25750.548 25750.548 0 0 0-92.262-90.972c-2.171-2.13-2.868-3.564-1.106-6.575 31.682-53.616 63.201-107.274 94.802-160.952 0.491-0.921 1.126-1.72 2.15-3.318zM787.13 875.07c-3.952-23.94-9.605-47.472-18.104-70.225-39.608-106.169-110.9-182.99-213.914-230.319a378.122 378.122 0 0 0-32.317-12.759c66.99-42.823 108.749-102.113 119.91-180.777 11.182-78.602-10.752-148.11-64.389-206.458a250.348 250.348 0 0 0-370.831 1.27c-51.057 56.258-72.602 123.289-63.59 198.696 9.768 81.388 52.019 142.828 120.565 186.84-1.188 1.535-3.072 1.72-4.67 2.252-10.198 3.564-20.131 7.619-29.941 12.083-77.087 35.43-137.257 89.62-180.327 162.673A392.397 392.397 0 0 0 0.678 873.635c-2.52 14.93 3.317 28.017 15.851 33.71 14.91 6.718 30.106 3.114 39.65-8.887 4.997-6.267 6.287-13.742 7.72-21.156 13.824-71.086 46.04-132.567 99.287-181.658 88.658-81.776 193.106-109.834 310.334-82.33 94.74 22.18 165.622 78.52 213.873 163 19.578 34.284 31.15 71.415 38.359 110.08 3.01 16.282 19.599 26.645 36.638 23.553 15.995-2.867 27.423-18.842 24.74-34.878zM393.894 539.3A193.823 193.823 0 0 1 199.62 344.76c0.328-107.581 87.45-194.314 194.294-194.068 107.07 0.246 194.13 87.45 194.069 194.376-0.082 107.069-87.04 194.498-194.09 194.232z m0 0" p-id="8905" fill="#53595E"></path></svg>