<svg t="1576550837194" class="icon" viewBox="0 0 1024 1024" version="1.1" xmlns="http://www.w3.org/2000/svg" p-id="30228" height="40" width="40"><path d="M1017.408 477.205333L626.368 88.32c-3.989333-4.010667-9.429333-2.986667-15.082667-2.986667h-0.085333c-5.696 0-11.114667-0.96-15.125333 3.114667L245.205333 441.536 275.626667 471.466667 611.413333 130.410667 950.784 469.333333H853.333333a21.333333 21.333333 0 0 0-21.333333 21.333334v341.333333H597.333333v-124.565333a21.248 21.248 0 0 0-6.656-15.466667l-70.997333-67.434667a21.333333 21.333333 0 0 0-14.677333-5.866666H362.666667a21.333333 21.333333 0 0 0-21.333334 21.333333v192h-21.333333V576a21.333333 21.333333 0 0 0-21.333333-21.333333H21.333333a21.333333 21.333333 0 0 0-21.333333 21.333333v277.333333a21.333333 21.333333 0 0 0 21.333333 21.333334h68.416a37.674667 37.674667 0 0 0-0.298666 4.864c0 31.104 24.32 57.365333 53.077333 57.365333 30.549333 0 53.376-32.832 53.418667-62.229333H415.786667c-0.170667 2.602667-0.213333 4.842667-0.213334 6.528 0 30.656 24.405333 56.554667 53.290667 56.554666 31.509333 0 53.461333-31.146667 53.461333-59.093333 0-1.450667-0.064-2.773333-0.192-3.989333H853.333333a21.333333 21.333333 0 0 0 21.333334-21.333334V512h127.658666c8.618667 0 16.426667-4.394667 19.712-12.373333a19.968 19.968 0 0 0-4.629333-22.421334zM277.333333 832H168.384a21.376 21.376 0 0 0-21.013333 25.066667c1.792 10.112 3.562667 16 5.696 20.352-1.28 8.192-7.530667 16.384-10.517334 16.832-4.266667 0-9.685333-6.272-10.346666-13.312 2.069333-4.650667 4.437333-10.88 6.784-23.722667A21.333333 21.333333 0 0 0 117.994667 832H42.666667V597.333333h234.666666v234.666667z m217.536 0a21.333333 21.333333 0 0 0-21.034666 25.024c2.112 11.946667 3.968 17.749333 5.781333 22.506667-0.469333 7.850667-7.04 15.552-10.773333 15.552-5.269333 0-10.624-7.018667-10.624-13.888 0-2.944 0.981333-10.026667 1.962666-14.144A21.333333 21.333333 0 0 0 443.84 832H384v-170.666667h112.469333L554.666667 716.586667V832h-59.797334z" p-id="30229" fill="#707070"></path><path d="M614.101333 247.338667l30.122667-30.208 147.669333 147.242666-30.144 30.229334z" p-id="30230" fill="#707070"></path></svg>