<svg t="1576550598914" class="icon" viewBox="0 0 1024 1024" version="1.1" xmlns="http://www.w3.org/2000/svg" p-id="22442" width="40" height="40"><path d="M398.00832 199.39328v799.49824c0 32.31744-45.3632 32.37888-45.3632 0V199.39328c0-32.31744 45.3632-32.37888 45.3632 0z" fill="#707070" p-id="22443"></path><path d="M383.24224 211.41504h77.47584c32.31744 0 32.37888 45.3632 0 45.3632h-77.47584c-11.34592 0-22.67136 0-22.67136-22.67136s11.32544-22.69184 22.67136-22.69184zM383.24224 292.59776h77.47584c32.31744 0 32.37888 45.3632 0 45.3632h-77.47584c-11.34592 0-22.67136 0-22.67136-22.67136s11.32544-22.69184 22.67136-22.69184zM383.24224 373.80096h77.47584c32.31744 0 32.37888 45.3632 0 45.3632h-77.47584c-11.34592 0-22.67136 0-22.67136-22.67136-0.02048-22.69184 11.32544-22.69184 22.67136-22.69184zM548.37248 554.86464H636.928c11.32544 0 22.67136 11.34592 22.67136 22.67136v81.14176c0 11.34592-11.34592 22.67136-22.67136 22.67136h-88.55552c-11.32544 0-22.67136-11.34592-22.67136-22.67136V577.536c-0.02048-11.32544 11.32544-22.67136 22.67136-22.67136z m22.67136 45.34272v35.77856h43.19232v-35.77856h-43.19232z" fill="#707070" p-id="22444"></path><path d="M535.59296 976.22016h118.272L616.87808 681.3696h-48.27136l-33.01376 294.85056z m-25.31328 45.3632c-12.57472 0-23.90016-12.63616-22.50752-25.16992l38.07232-340.21376c1.1264-10.01472 12.45184-20.19328 22.50752-20.19328h88.51456c9.91232 0 21.27872 10.09664 22.50752 19.92704L702.0544 996.1472c1.57696 12.63616-9.74848 25.41568-22.50752 25.41568h-169.2672v0.02048zM802.18112 609.66912c18.75968 0 35.79904 7.63904 48.128 19.968a67.91168 67.91168 0 0 1 0 96.256 67.91168 67.91168 0 0 1-48.128 19.968 68.1984 68.1984 0 0 1-68.096-68.096c0-18.75968 7.63904-35.79904 19.968-48.128a67.9936 67.9936 0 0 1 48.128-19.968z m0 45.3632c-6.2464 0-11.93984 2.56-16.05632 6.67648a22.69184 22.69184 0 1 0 32.11264 32.11264 22.69184 22.69184 0 0 0-16.05632-38.78912z" fill="#707070" p-id="22445"></path><path d="M539.62752 228.80256c72.17152-40.8576 142.45888-42.27072 198.18496-19.74272a189.93152 189.93152 0 0 1 75.6736 55.296 177.11104 177.11104 0 0 1 38.25664 83.57888c6.41024 38.912-0.24576 81.08032-23.87968 121.50784 63.46752 1.88416 111.55456 26.25536 144.19968 62.6688 22.38464 24.96512 37.29408 55.64416 44.7488 88.59648 7.33184 32.39936 7.3728 66.94912 0.18432 100.27008-15.17568 70.22592-62.3616 135.63904-141.04576 165.33504-30.24896 11.40736-46.24384-30.90432-15.95392-42.35264 62.79168-23.69536 100.51584-76.16512 112.70144-132.56704a187.8016 187.8016 0 0 0-0.02048-80.77312c-5.7344-25.35424-17.22368-48.96768-34.46784-68.21888-31.3344-34.93888-82.59584-55.296-154.35776-45.24032-19.92704 2.78528-33.3824-23.10144-19.7632-37.82656 37.53984-40.61184 49.43872-84.95104 42.96704-124.14976a131.66592 131.66592 0 0 0-28.48768-62.1568 144.81408 144.81408 0 0 0-57.61024-42.00448c-43.95008-17.75616-100.20864-16.19968-159.0272 17.1008-28.11904 15.95392-50.4832-23.36768-22.30272-39.3216z" fill="#707070" p-id="22446"></path><path d="M633.69216 149.2992c-63.8976-75.776-141.4144-105.65632-212.62336-103.60832-38.95296 1.10592-75.9808 11.65312-107.8272 29.32736-31.70304 17.6128-58.30656 42.25024-76.53376 71.61856-27.87328 44.9536-36.18816 101.49888-13.06624 161.42336 6.30784 16.34304-8.68352 33.97632-25.78432 30.28992-44.032-9.46176-79.89248 4.68992-104.28416 30.39232-13.66016 14.41792-23.9616 32.54272-30.24896 52.3264a149.15584 149.15584 0 0 0-6.12352 62.27968c4.79232 40.46848 27.56608 78.92992 72.66304 99.65568 29.32736 13.47584 10.69056 54.64064-18.78016 41.10336C49.68448 595.8656 18.69824 543.62112 12.1856 488.6528a194.39616 194.39616 0 0 1 7.8848-81.24416c8.31488-26.09152 22.13888-50.29888 40.71424-69.87776 27.52512-28.99968 65.024-47.69792 110.08-47.53408-14.27456-61.6448-2.1504-119.45984 27.40224-167.1168 22.34368-36.0448 54.6816-66.08896 92.99968-87.38816A281.7024 281.7024 0 0 1 419.81952 0.3072c83.84512-2.39616 174.53056 32.13312 248.4224 119.74656 20.84864 24.69888-13.66016 53.98528-34.54976 29.24544zM137.15456 691.77344a135.168 135.168 0 0 1 95.744 39.8336v-0.06144a135.10656 135.10656 0 0 1 39.75168 95.744c0 74.62912-60.86656 135.49568-135.49568 135.49568a135.08608 135.08608 0 0 1-95.744-39.75168h0.08192a135.08608 135.08608 0 0 1-39.8336-95.744c-0.02048-74.62912 60.86656-135.51616 135.49568-135.51616z m0 45.3632a90.33728 90.33728 0 0 0-90.15296 90.15296c0 24.86272 10.09664 47.39072 26.37824 63.67232h0.08192a89.84576 89.84576 0 0 0 63.6928 26.46016 90.33728 90.33728 0 0 0 90.15296-90.15296 89.92768 89.92768 0 0 0-26.46016-63.6928v-0.08192a89.94816 89.94816 0 0 0-63.6928-26.35776z" fill="#707070" p-id="22447"></path></svg>