<svg t="1576550522577" class="icon" viewBox="0 0 1024 1024" version="1.1" xmlns="http://www.w3.org/2000/svg" p-id="19788" width="40" height="40"><path d="M794.096 1006.48H229.904c-124.864 0-226.432-101.6-226.432-226.416V387.648c0-124.864 101.584-226.448 226.432-226.448h564.192c124.864 0 226.432 101.6 226.432 226.448v392.384c0.032 124.864-101.568 226.448-226.432 226.448zM229.904 224.816c-89.776 0-162.832 73.056-162.832 162.848v392.4c0 89.776 73.056 162.816 162.832 162.816h564.192c89.776 0 162.832-73.056 162.832-162.816V387.648c0-89.792-73.04-162.848-162.832-162.848l-564.192 0.016z" p-id="19789" fill="#707070"></path><path d="M67.712 372.8H4.096c0-56.176-0.624-132.368-0.624-132.368 0-123.04 99.888-222.912 222.656-222.912h149.76c135.376 0 213.008 73.008 213.008 200.336H525.28c0-92-48.864-136.72-149.392-136.72h-149.76c-87.68 0-159.04 71.344-159.04 159.04-0.016 0 0.624 76.336 0.624 132.624z" p-id="19790" fill="#707070"></path><path d="M484.736 776.304l-103.072-206.144-32.592 65.184-226.512-2.608 0.368-32 206.464 2.384 52.272-104.528 99.824 199.648 99.744-249.456 98.704 151.984 209.84 2.352-0.352 32-226.992-2.544-74.416-114.592z" p-id="19791" fill="#707070"></path><path d="M485.952 805.568l-104.304-208.576-25.216 50.432-246.016-2.832 0.656-56 210.96 2.432 59.632-119.28 98.608 197.216 98.416-246.144 107.808 166.016 215.424 2.416-0.64 56-245.408-2.768-65.312-100.56-104.608 261.648z m-104.288-262.24l101.856 203.696 101.952-255.008 83.536 128.624 208.56 2.336 0.08-8-204.272-2.304-89.6-137.952-101.072 252.768-101.04-202.064-44.88 89.792-202-2.336-0.096 8 207.008 2.384 39.968-79.936z" p-id="19792" fill="#707070"></path><path d="M874.208 805.552a19.84 19.84 0 0 1-19.84 19.84h-149.632a19.84 19.84 0 0 1 0-39.696h149.632a19.84 19.84 0 0 1 19.84 19.856z" p-id="19793" fill="#707070"></path><path d="M779.552 710.896c10.96 0 19.84 8.896 19.84 19.84v149.632a19.84 19.84 0 0 1-39.696 0v-149.632a19.84 19.84 0 0 1 19.856-19.84zM285.168 430.88a13.152 13.152 0 0 1-13.136 13.136h-99.04a13.136 13.136 0 0 1 0-26.272h99.04a13.12 13.12 0 0 1 13.136 13.136z" p-id="19794" fill="#707070"></path><path d="M222.512 368.224c7.248 0 13.136 5.888 13.136 13.136v99.04a13.152 13.152 0 0 1-26.288 0v-99.04c0-7.264 5.888-13.136 13.152-13.136z" p-id="19795" fill="#707070"></path></svg>