<svg t="1576550795291" class="icon" viewBox="0 0 1024 1024" version="1.1" xmlns="http://www.w3.org/2000/svg" p-id="28986" height="40" width="40"><path d="M257 738.4H96c-17.7 0-32-14.3-32-32v-447c0-17.7 14.3-32 32-32h160V130c0-35.3 28.7-64 64-64h384c35.3 0 64 28.7 64 64v97.4h160c17.7 0 32 14.3 32 32v406c0 17.7-14.3 73-32 73H768V928c0 17.673-14.327 32-32 32H289c-17.673 0-32-14.327-32-32V738.4z m511-64h120a8 8 0 0 0 8-8v-367a8 8 0 0 0-8-8H136a8 8 0 0 0-8 8v367a8 8 0 0 0 8 8h121V503c0-8.837 7.163-16 16-16h479c8.837 0 16 7.163 16 16v171.4zM320 130v97h384v-97H320z m9 421a8 8 0 0 0-8 8v329a8 8 0 0 0 8 8h367a8 8 0 0 0 8-8V559a8 8 0 0 0-8-8H329z m439-113c-30.928 0-56-25.072-56-56s25.072-56 56-56 56 25.072 56 56-25.072 56-56 56z" p-id="28987" fill="#707070"></path></svg>