<svg t="1576550654778" class="icon" viewBox="0 0 1024 1024" version="1.1" xmlns="http://www.w3.org/2000/svg" p-id="23877" height="40" width="40"><path d="M992.0576 929.92H32.0576A32 32 0 0 1 0.0576 896a32 32 0 0 1 32-32h960a32 32 0 0 1 32 32 32 32 0 0 1-32 33.92zM448.0576 356.48H282.9376a32.64 32.64 0 0 1-32-32 32 32 0 0 1 32-32H448.0576a32 32 0 0 1 32 32 32.64 32.64 0 0 1-32 32zM448.0576 546.56H282.9376a32 32 0 0 1-32-32 32.64 32.64 0 0 1 32-32H448.0576a32.64 32.64 0 0 1 32 32 32 32 0 0 1-32 32z" p-id="23878" fill="#707070"></path><path d="M896.0576 929.92a32.64 32.64 0 0 1-32-32V423.68a32 32 0 0 1 32-32 32 32 0 0 1 32 32V896a32 32 0 0 1-32 33.92zM602.9376 158.08H128.0576a32 32 0 0 1-32-32 32 32 0 0 1 32-32h474.88a32.64 32.64 0 0 1 32 32 32 32 0 0 1-32 32z" p-id="23879" fill="#707070"></path><path d="M896.0576 455.68h-134.4a32.64 32.64 0 0 1-32-32 32 32 0 0 1 32-32H896.0576a32 32 0 0 1 32 32 32 32 0 0 1-32 32zM604.2176 929.92a32.64 32.64 0 0 1-32-32V128a32.64 32.64 0 0 1 32-32 32 32 0 0 1 32 32v768a32 32 0 0 1-32 33.92zM128.0576 929.92a32 32 0 0 1-32-32V128a32 32 0 0 1 32-32 32.64 32.64 0 0 1 32 32v768a32.64 32.64 0 0 1-32 33.92z" p-id="23880" fill="#707070"></path></svg>