<svg t="1576132844260" class="icon" viewBox="0 0 1024 1024" version="1.1" xmlns="http://www.w3.org/2000/svg" p-id="20475" width="45" height="45"><path d="M735.9 66.5H288.1C176.4 66.5 85.5 157.3 85.5 269v486c0 111.7 90.9 202.6 202.6 202.6H736c111.7 0 202.6-90.9 202.6-202.6V269c-0.1-111.7-91-202.5-202.7-202.5zM884.8 755c0 82.1-66.8 148.9-148.9 148.9H288.1C206 903.8 139.2 837 139.2 755V269c0-82.1 66.8-148.9 148.9-148.9H736c82.1 0 148.9 66.8 148.9 148.9v486z" fill="#53595E" p-id="20476"></path><path d="M651.2 344.5c-18.5 0-33.6 15-33.6 33.6 0 58.3-47.4 105.7-105.7 105.7-58.3 0-105.7-47.4-105.7-105.7 0-18.5-15-33.6-33.6-33.6-18.5 0-33.6 15-33.6 33.6 0 95.3 77.5 172.8 172.8 172.8s172.8-77.5 172.8-172.8c0.2-18.6-14.8-33.6-33.4-33.6z" fill="#53595E" p-id="20477"></path></svg>