<svg t="1576569493735" class="icon" viewBox="0 0 1024 1024" version="1.1" xmlns="http://www.w3.org/2000/svg" p-id="2002" width="30" height="30"><path d="M843.52669272 885.6895345c-11.62792969-10.79736328-23.67114258-23.25585938-37.37548829-35.29907226-32.39208984 21.59472656-68.52172852 29.06982422-106.7277832 26.16284179s-73.08984375-15.78076172-109.21948242-34.46850586c-2.07641602 7.05981445-4.98339844 12.8737793-6.64453125 19.51831055-4.98339844 20.34887695-25.33227539 27.40869141-41.11303711 13.7043457-7.89038086-6.64453125-12.45849609-14.53491211-8.72094727-23.67114257 3.73754883-9.96679688 9.96679688-18.68774414 21.59472657-20.76416016 3.73754883-0.83056641 7.05981445-2.90698242 12.45849609-4.15283203l-27.40869141-33.22265625 32.39208985-29.06982422c18.68774414 13.7043457 36.12963867 29.48510742 54.81738281 40.2824707 40.2824707 23.67114258 82.22607422 28.23925781 125.00024414 4.15283203 2.90698242-1.24584961 4.98339844-3.73754883 8.72094727-5.81396484l-115.44873047-113.37231445-34.05322266 32.39208984-53.5715332-48.58813477c16.61132813-17.44189453 33.22265625-34.05322266 49.00341797-50.66455078 11.62792969-11.62792969 22.42529297-23.67114258 34.05322265-34.46850586 3.73754883-2.90698242 8.72094727-4.98339844 12.8737793-5.81396484 8.72094727-0.83056641 17.44189453 0.83056641 26.1628418 0 5.81396484-0.83056641 10.79736328-2.07641602 15.36547851-4.98339844 6.64453125-4.15283203 11.62792969-9.96679688 17.85717774-15.78076172 9.55151367 8.72094727 18.68774414 17.44189453 29.06982422 26.578125l-43.18945313 47.75756836c40.2824707 39.8671875 78.07324219 78.07324219 116.27929688 117.52514649 22.42529297-43.18945313 26.578125-85.96362305 7.05981445-129.98364258-15.36547852-33.22265625-40.2824707-56.89379883-69.35229492-77.24267578-12.8737793-8.72094727-26.1628418-16.61132813-39.8671875-26.1628418 9.55151367 1.24584961 19.51831055 1.24584961 29.06982422 2.90698242 77.24267578 13.7043457 134.96704102 70.18286133 150.33251953 147.42553711 7.05981445 35.29907227-1.24584961 68.52172852-16.61132813 100.91381836-1.24584961 3.73754883-3.73754883 7.05981445-5.81396484 10.79736328-7.05981445 14.53491211-7.05981445 14.53491211 3.73754883 26.578125 7.05981445 7.89038086 14.53491211 16.61132813 21.59472656 23.67114258l-52.3256836 53.15625z" fill="#707070" p-id="2003"></path><path d="M478.90804037 224.55867513c54.81738281 0 100.91381836 36.96020508 115.44873047 87.20947265 97.17626953-14.11962891 174.00366211-40.69775391 174.00366211-40.6977539V128.212972H189.870931v143.27270508s76.41210938 26.1628418 174.00366211 40.2824707c14.53491211-50.66455078 60.21606445-87.20947266 115.03344726-87.20947265zM465.20369467 752.3836263H286.21663412v-49.83398438h177.32592774c1.24584961-16.19604492 3.73754883-31.56152344 7.47509765-46.51171875H286.21663412v-49.83398437h192.69140625v25.33227539c9.96679688-26.578125 24.50170898-50.66455078 42.35888672-71.84399414H286.21663412V511.51936849h290.28295899c38.62133789-24.91699219 84.30249023-39.03662109 133.3059082-39.0366211 19.93359375 0 39.4519043 2.49169922 58.13964844 7.05981446v-161.96044922s-74.75097656 26.578125-170.26611329 41.52832031c-7.05981445 59.80078125-57.30908203 106.3125-119.18627929 106.3125s-112.12646484-46.51171875-119.1862793-106.7277832c-95.51513672-14.95019531-170.26611328-41.11303711-170.26611328-41.11303711v533.22363281h310.63183594c-17.44189453-29.06982422-29.90039063-62.29248047-34.46850586-98.42211914z" fill="#707070" p-id="2004"></path><path d="M411.21687826 349.55891927c0 37.37548828 30.31567383 67.69116211 67.69116211 67.69116211s67.69116211-30.31567383 67.69116211-67.69116211-30.31567383-67.69116211-67.69116211-67.69116211c-37.37548828-0.4152832-67.69116211 29.90039063-67.69116211 67.69116211z" p-id="2005" fill="#707070"></path></svg>