<svg t="1576569542344" class="icon" viewBox="0 0 1024 1024" version="1.1" xmlns="http://www.w3.org/2000/svg" p-id="3161" width="30" height="30"><path d="M819.2 556.8c9.6-32 19.2-64 25.6-89.6 16-86.4-3.2-131.2-12.8-169.6-12.8-38.4-51.2-76.8-73.6-96-22.4-19.2-67.2-19.2-76.8-19.2-6.4 0-12.8-12.8-25.6-12.8s-12.8 12.8-12.8 12.8-12.8-6.4-25.6-25.6-16-28.8-54.4-67.2S483.2 48 422.4 48 316.8 64 259.2 99.2s-54.4 73.6-64 92.8c-9.6 19.2-9.6 51.2-6.4 64 3.2 12.8-6.4 22.4-16 38.4s-22.4 25.6-32 38.4c-9.6 9.6-6.4 22.4 0 25.6 9.6 6.4 12.8 9.6 19.2 12.8 6.4 3.2 0 12.8-3.2 16s-3.2 16 0 19.2c6.4 6.4 0 12.8 0 19.2s0 12.8 6.4 16 6.4 16 3.2 28.8 0 25.6 9.6 38.4c9.6 9.6 32 6.4 44.8 6.4s41.6 3.2 54.4 6.4c6.4 0 16 38.4 25.6 54.4 6.4 16 16 38.4 25.6 51.2s19.2 32 19.2 44.8c0 9.6-35.2 73.6-67.2 118.4-28.8 48-51.2 76.8-64 99.2-9.6 12.8 92.8 89.6 268.8 89.6 54.4 0 96-3.2 128-12.8 22.4 6.4 48 12.8 73.6 12.8 128 0 233.6-105.6 233.6-233.6-3.2-76.8-41.6-147.2-99.2-188.8z m-249.6-128c12.8-9.6 28.8-25.6 48-54.4 16-25.6 22.4-48 22.4-70.4-3.2-19.2-6.4-48 0-54.4 6.4-12.8 12.8 6.4 19.2 6.4s9.6-19.2 16-22.4c6.4-3.2 32 51.2 28.8 73.6s-3.2 54.4-22.4 96-86.4 99.2-86.4 99.2 86.4-25.6 89.6-6.4v16h-3.2c-51.2 0-99.2 16-137.6 44.8 0-3.2-3.2-3.2-6.4-6.4-19.2-22.4-16-64-19.2-83.2 0-19.2 38.4-28.8 51.2-38.4z m112 531.2c-118.4 0-211.2-96-211.2-211.2 0-118.4 96-211.2 211.2-211.2 118.4 0 211.2 96 211.2 211.2S800 960 681.6 960z m0-387.2c-64 0-118.4 51.2-118.4 118.4 0 60.8 44.8 108.8 102.4 115.2v35.2h-44.8v35.2h44.8v44.8h35.2v-44.8h44.8v-35.2h-44.8v-35.2c54.4-9.6 96-57.6 96-115.2 3.2-67.2-51.2-118.4-115.2-118.4z m0 201.6c-44.8 0-83.2-38.4-83.2-83.2s38.4-83.2 83.2-83.2 83.2 38.4 83.2 83.2-38.4 83.2-83.2 83.2z" p-id="3162" fill="#707070"></path></svg>