<svg t="1576569561819" class="icon" viewBox="0 0 1024 1024" version="1.1" xmlns="http://www.w3.org/2000/svg" p-id="3500" width="30" height="30"><path d="M797.821701 186.753381 226.257094 186.753381c-52.620451 0-95.259574 42.639123-95.259574 95.259574l0 457.250048c0 52.623521 42.639123 95.262644 95.259574 95.262644l571.564607 0c52.620451 0 95.259574-42.639123 95.259574-95.262644L893.081275 282.012955C893.081275 229.392504 850.442152 186.753381 797.821701 186.753381L797.821701 186.753381zM854.978469 739.263004c0 31.550577-25.606191 57.156768-57.156768 57.156768L226.257094 796.419771c-31.550577 0-57.153698-25.606191-57.153698-57.156768L169.103396 282.012955c0-31.550577 25.603121-57.153698 57.153698-57.153698l571.564607 0c31.550577 0 57.156768 25.603121 57.156768 57.153698L854.978469 739.263004 854.978469 739.263004zM245.312078 663.054321l209.57004 0 0-38.101783L245.312078 624.952538 245.312078 663.054321 245.312078 663.054321zM245.312078 529.692964l209.57004 0 0-38.1069L245.312078 491.586065 245.312078 529.692964 245.312078 529.692964zM245.312078 396.327514l209.57004 0 0-38.1069L245.312078 358.220614 245.312078 396.327514 245.312078 396.327514zM706.447621 526.071484c20.730137-17.488303 34.216289-43.322691 34.216289-72.587202 0-52.624545-42.639123-95.263667-95.259574-95.263667-52.623521 0-95.258551 42.639123-95.258551 95.263667 0 29.264511 13.486152 55.098899 34.216289 72.587202-42.790572 22.212908-72.323189 66.414619-72.323189 117.931946 0 10.516518 8.534374 19.050891 19.050891 19.050891 10.517541 0 19.056008-8.534374 19.056008-19.050891 0-52.620451 42.635029-95.259574 95.258551-95.259574 52.620451 0 95.259574 42.639123 95.259574 95.259574 0 10.516518 8.534374 19.050891 19.050891 19.050891 10.517541 0 19.056008-8.534374 19.056008-19.050891C778.770809 592.486102 749.238193 548.284391 706.447621 526.071484L706.447621 526.071484zM645.404336 510.637979c-31.550577 0-57.156768-25.607214-57.156768-57.153698 0-31.550577 25.606191-57.156768 57.156768-57.156768 31.550577 0 57.157791 25.606191 57.157791 57.156768C702.562127 485.030765 676.954913 510.637979 645.404336 510.637979L645.404336 510.637979zM645.404336 510.637979" p-id="3501" fill="#707070"></path></svg>