<svg t="1576569920623" class="icon" viewBox="0 0 1082 1024" version="1.1" xmlns="http://www.w3.org/2000/svg" p-id="9901" width="30" height="30"><path d="M1043.481197 1024H282.933956a38.935866 38.935866 0 0 1-38.935865-38.935866V594.070173a38.935866 38.935866 0 0 1 38.935865-38.935866h760.547241a38.935866 38.935866 0 0 1 38.935865 38.935866v390.993961a38.935866 38.935866 0 0 1-38.935865 38.935866z m-721.611375-77.871731h682.675509V633.006038H321.869822z" fill="#707070" p-id="9902"></path><path d="M1043.481197 628.048205H282.933956a38.935866 38.935866 0 0 1-36.002697-53.783409l65.983314-160.026408a38.935866 38.935866 0 0 1 36.002697-24.088322h628.580613a38.935866 38.935866 0 0 1 36.002697 24.088322l65.983314 160.026408A38.935866 38.935866 0 0 1 1043.481197 628.048205z m-702.377057-77.871732h644.206874l-33.874203-82.154676H374.978343z" fill="#707070" p-id="9903"></path><path d="M741.572495 872.409697H581.442259a25.957244 25.957244 0 0 1-25.957244-25.957244v-252.38228a25.957244 25.957244 0 0 1 25.957244-25.957244h160.026407a25.957244 25.957244 0 0 1 25.957244 25.957244v252.38228a25.957244 25.957244 0 0 1-25.853415 25.957244z m-134.172992-51.914488h108.11192v-200.467793H607.399503z" fill="#707070" p-id="9904"></path><path d="M741.572495 620.027416H581.442259a25.957244 25.957244 0 0 1-25.464056-31.148692l32.991657-164.984241a25.957244 25.957244 0 0 1 25.464056-20.765795H708.632753a25.957244 25.957244 0 0 1 25.464056 20.765795l32.991657 164.984241a25.957244 25.957244 0 0 1-25.464056 31.148692z m-128.35857-51.914487h96.690733l-22.608759-113.069754h-51.473214zM203.79032 579.430287a25.957244 25.957244 0 0 1-7.787173-1.168076 281.402479 281.402479 0 0 1-140.610389-99.520072A279.04037 279.04037 0 1 1 558.08074 311.733233a282.933956 282.933956 0 0 1-1.427649 28.552968 25.957244 25.957244 0 1 1-51.654915-5.191449 231.019469 231.019469 0 0 0 1.168076-23.361519 227.099925 227.099925 0 1 0-294.66663 216.924685 25.957244 25.957244 0 0 1-7.787173 50.746412z" fill="#707070" p-id="9905"></path><path d="M528.904798 133.01761a25.957244 25.957244 0 0 1-25.775543-23.361519 60.142934 60.142934 0 0 0-0.934461-5.970167 58.845071 58.845071 0 0 0-69.669242-45.554962 25.962435 25.962435 0 1 1-10.64247-50.824283 110.759559 110.759559 0 0 1 131.110038 85.658904 111.927635 111.927635 0 0 1 1.765092 11.187572 25.957244 25.957244 0 0 1-25.957243 28.552968zM30.006574 135.717163h-0.389359a25.957244 25.957244 0 0 1-25.593842-26.450431 112.109336 112.109336 0 0 1 0.726803-11.291401A110.889345 110.889345 0 0 1 127.579853 0.739496a25.962435 25.962435 0 0 1-5.996123 51.577043A58.922943 58.922943 0 0 0 56.327219 104.075283a59.98719 59.98719 0 0 0-0.389359 6.048038 25.957244 25.957244 0 0 1-25.931286 25.593842zM280.208446 338.858552a25.957244 25.957244 0 0 1-25.957244-25.957243V137.949486a25.957244 25.957244 0 0 1 51.914487 0v174.951823a25.957244 25.957244 0 0 1-25.957243 25.957243z" fill="#707070" p-id="9906"></path><path d="M186.892155 416.392839a25.957244 25.957244 0 0 1-16.690508-45.866449l93.212462-78.053432a25.957244 25.957244 0 0 1 33.329101 39.792455l-93.13459 78.105346a25.957244 25.957244 0 0 1-16.716465 6.02208z" fill="#707070" p-id="9907"></path></svg>