<?xml version="1.0" encoding="UTF-8"?>
<svg width="21px" height="20px" viewBox="0 0 21 20" version="1.1" xmlns="http://www.w3.org/2000/svg" xmlns:xlink="http://www.w3.org/1999/xlink">
    <!-- Generator: Sketch 57.1 (83088) - https://sketch.com -->
    <title>16B208A5-1041-46BE-A066-A63772937DD4</title>
    <desc>Created with Sketch.</desc>
    <g id="页面-1" stroke="none" stroke-width="1" fill="none" fill-rule="evenodd">
        <g id="自定义预设-2" transform="translate(-540.000000, -148.000000)" fill="#FFFFFF" fill-rule="nonzero">
            <g id="能源-激活" transform="translate(540.000000, 148.000000)">
                <path d="M10.26,16.1200001 C7.59926539,16.1204045 5.20031775,14.5178745 4.18191186,12.0597536 C3.16350596,9.60163272 3.72622816,6.77207517 5.60765167,4.89065167 C7.48907517,3.00922816 10.3186327,2.44650596 12.7767536,3.46491186 C15.2348745,4.48331775 16.8374045,6.88226539 16.8370001,9.543 C16.832592,13.1735494 13.8905494,16.115592 10.26,16.1200001 L10.26,16.1200001 Z M9.173,9.664 C9.653,9.664 9.946,9.846 10.043,10.204 C10.363,11.388 8.635,14.911 8.561,15.06 L12.332,9.997 C13.348,8.635 13.564,8.344 13.609,8.282 L13.621,8.266 L13.6,8.272 C12.896608,8.43570501 12.1788189,8.52982482 11.457,8.553 C11.0649256,8.60421093 10.6683032,8.50093133 10.351,8.265 C9.772,7.621 11.282,5.696 11.297,5.677 L8.938,5.677 L7.251,10.202 C7.25491838,10.1989668 7.25931082,10.1966017 7.264,10.195 C7.86226741,9.90228662 8.50945901,9.72260535 9.173,9.665 L9.173,9.664 Z" id="减去_1"></path>
                <path d="M13.418,0.935 C13.4888332,1.0509749 13.5935454,1.14242357 13.718,1.197 C13.741,1.208 13.752,1.208 13.775,1.22 C17.1221766,2.62975578 19.2968275,5.91006127 19.292,9.542 C19.2941416,9.93875064 19.2674043,10.335131 19.212,10.728 C19.1916871,10.8627314 19.2200501,11.0002919 19.292,11.116 C19.4237933,11.3406584 19.6826412,11.4581454 19.9385097,11.4094406 C20.1943783,11.3607358 20.3919607,11.1563669 20.432,10.899 C20.4910546,10.453073 20.5214503,10.0038177 20.5230012,9.554 C20.5249821,5.39995994 18.0207459,1.65505663 14.181,0.07 C13.940113,-0.0320241348 13.6609697,0.031474385 13.4879183,0.227659762 C13.314867,0.42384514 13.2867069,0.708731134 13.418,0.935 Z M16.118,16.5869984 C15.9826895,16.5883858 15.8512076,16.6320966 15.742,16.712 C15.1377238,17.1800968 14.4747549,17.5670528 13.77,17.863 C11.5241629,18.805262 8.9938371,18.805262 6.748,17.863 C6.04324506,17.5670528 5.38027618,17.1800968 4.776,16.712 C4.504968,16.5184034 4.12926997,16.5744221 3.92650432,16.8386645 C3.72373868,17.102907 3.76685713,17.4803032 4.024,17.692 C7.70551611,20.5038226 12.8134839,20.5038226 16.495,17.692 C16.7047656,17.5313041 16.7886743,17.2547226 16.7035527,17.0045644 C16.618431,16.7544063 16.3832431,16.5864042 16.119,16.5869984 L16.118,16.5869984 Z M1.231,11.104 C1.2976443,10.9862371 1.32562721,10.85052 1.311,10.716 C1.26125985,10.3225619 1.23454768,9.92655393 1.231,9.53 C1.23417176,5.90047099 3.40615774,2.62418545 6.748,1.208 C6.771,1.197 6.782,1.197 6.805,1.185 C6.92945456,1.13042357 7.03416677,1.0389749 7.105,0.923 C7.23687686,0.695476012 7.20949259,0.40927689 7.03686335,0.210888839 C6.86423411,0.0125007888 6.58456502,-0.0541703194 6.341,0.045 C2.50228203,1.63943003 0.00117814751,5.38832351 0.00299900536,9.545 C0.00455521431,9.99481748 0.0349509027,10.4440724 0.094,10.89 C0.130947234,11.1490295 0.328726611,11.3557822 0.585862971,11.404179 C0.842999331,11.4525758 1.10241061,11.3318731 1.231,11.104 L1.231,11.104 Z" id="路径_2"></path>
            </g>
        </g>
    </g>
</svg>