<?xml version="1.0" encoding="UTF-8"?>
<svg width="20px" height="18px" viewBox="0 0 20 18" version="1.1" xmlns="http://www.w3.org/2000/svg" xmlns:xlink="http://www.w3.org/1999/xlink">
    <!-- Generator: Sketch 57.1 (83088) - https://sketch.com -->
    <title>B0961EC0-C8EF-403A-ACA8-5778598D6723</title>
    <desc>Created with Sketch.</desc>
    <g id="页面-1" stroke="none" stroke-width="1" fill="none" fill-rule="evenodd">
        <g id="自定义预设-2" transform="translate(-446.000000, -150.000000)" fill="#FFFFFF" fill-rule="nonzero">
            <g id="设备-激活" transform="translate(446.000000, 150.000000)">
                <path d="M18.919,17.833 C18.4194958,17.8312056 18.0055716,17.4451669 17.969,16.947 L17.969,0.895 C18.0351721,0.384631608 18.4698597,0.00266529535 18.9845,0.00266529535 C19.4991403,0.00266529535 19.9338279,0.384631608 20,0.895 L20,16.9 C19.9811562,17.4181339 19.5554764,17.8283425 19.037,17.828 L18.984,17.828 L18.919,17.833 Z M14.469,17.79 C14.441,17.79 14.412,17.79 14.384,17.79 L9.474,17.79 L9.405,17.79 C8.89849152,17.788295 8.47324594,17.4081512 8.415,16.905 L8.415,16.286 L7.015,16.286 L7.015,16.9 C6.96783295,17.3993474 6.55055467,17.7820685 6.049,17.786 C6.021,17.786 5.992,17.786 5.964,17.786 L1.051,17.786 L0.983,17.786 C0.476370556,17.7870707 0.0513812798,17.4040184 0,16.9 L0,0.93 C0.0466299361,0.426949037 0.469797099,0.0428434588 0.975,0.045 L1.042,0.045 L5.96,0.045 L6.021,0.045 C6.52716892,0.0466449717 6.95228677,0.426245149 7.011,0.929 L7.011,15.058 L8.411,15.058 L8.411,0.93 C8.4291012,0.665638143 8.55138693,0.419268372 8.751,0.245 C8.9305146,0.0874159451 9.16113163,0.000357130484 9.4,-1.66280696e-08 L9.473,-1.66280696e-08 L14.383,-1.66280696e-08 L14.456,-1.66280696e-08 C14.9775448,-1.66280696e-08 15.4074027,0.409083745 15.433,0.93 L15.433,16.9 C15.3887342,17.4006142 14.9715497,17.7857741 14.469,17.79 L14.469,17.79 Z M10.169,15.067 L10.169,16.294 L11.569,16.294 L11.569,15.067 L10.169,15.067 Z M1.745,15.067 L1.745,16.294 L3.145,16.294 L3.145,15.067 L1.745,15.067 Z M10.154,1.539 L10.154,2.776 L13.686,2.776 L13.686,1.539 L10.154,1.539 Z M1.73,1.539 L1.73,2.776 L5.262,2.776 L5.262,1.539 L1.73,1.539 Z" id="形状"></path>
            </g>
        </g>
    </g>
</svg>