<?xml version="1.0" encoding="UTF-8"?>
<svg width="20px" height="22px" viewBox="0 0 20 22" version="1.1" xmlns="http://www.w3.org/2000/svg" xmlns:xlink="http://www.w3.org/1999/xlink">
    <!-- Generator: Sketch 57.1 (83088) - https://sketch.com -->
    <title>D70F1D46-CCA0-46D2-B66B-B587FC914E1B</title>
    <desc>Created with Sketch.</desc>
    <g id="页面-1" stroke="none" stroke-width="1" fill="none" fill-rule="evenodd">
        <g id="自定义预设-2" transform="translate(-399.000000, -148.000000)" fill="#FFFFFF" fill-rule="nonzero">
            <g id="安全-激活" transform="translate(398.000000, 148.000000)">
                <path d="M20.882,11.616 C21.928,18.94 15.704,19.494 14.803,19.916 C13.4861707,20.4052811 12.2531854,21.0958203 11.148,21.963 C10.1423806,21.1340269 9.02888032,20.445406 7.838,19.916 C6.9,19.529 0.06,18.916 1.108,11.616 C1.329,10.565 2.54,9.68 2.54,7.91 C2.38163648,6.530761 1.86939709,5.21588691 1.053,4.093 L5.301,-1.42108547e-14 C6.13349857,0.585195917 7.1018649,0.947687828 8.114,1.053 C9.19065632,0.93023231 10.226781,0.570628046 11.148,-1.42108547e-14 C12.0526289,0.563418741 13.0692506,0.92276842 14.127,1.053 C15.1361606,0.935212247 16.1015527,0.573833681 16.94,-1.42108547e-14 L20.904,4.038 C20.0916938,5.18375611 19.5800532,6.51512189 19.416,7.91 C19.417,9.676 20.616,10.511 20.882,11.616 Z M11.089,3.64 C7.3038574,3.7767924 4.3140979,6.89948919 4.342,10.687 C4.48159309,14.3122573 7.46105611,17.179202 11.089,17.179202 C14.7169439,17.179202 17.6964069,14.3122573 17.836,10.687 C17.864446,6.89910219 14.8745335,3.7758025 11.089,3.639 L11.089,3.64 Z M11.126,16.7760156 C8.570959,16.7816653 6.26435226,15.2469057 5.28265237,12.8879797 C4.30095247,10.5290537 4.83769036,7.81099664 6.6423753,6.00230129 C8.44706023,4.19360594 11.1639192,3.65083596 13.5250185,4.62729721 C15.8861178,5.60375845 17.4260039,7.90695272 17.4260039,10.462 C17.4278575,12.1346286 16.7651208,13.7394739 15.5836127,14.92342 C14.4021046,16.1073661 12.7986289,16.7734096 11.126,16.775 L11.126,16.7760156 Z M14.926,7.612 C14.5674139,7.61305797 14.2759106,7.90144592 14.271,8.26 L12.471,8.26 L11.525,6.617 C11.713607,6.50007711 11.8293999,6.29489367 11.832,6.073 C11.8414012,5.83198179 11.7181792,5.60513724 11.5108774,5.48183217 C11.3035757,5.35852709 11.0454243,5.35852709 10.8381226,5.48183217 C10.6308208,5.60513724 10.5075988,5.83198179 10.517,6.073 C10.5189386,6.31264073 10.6521851,6.5319023 10.864,6.644 L9.933,8.26 L8.076,8.26 C8.06830422,7.89949409 7.77108112,7.61278449 7.41053183,7.61807106 C7.04998254,7.62335763 6.76129318,7.91865819 6.7641703,8.27923475 C6.76704742,8.63981132 7.06041226,8.93046754 7.421,8.93 C7.53300649,8.92741657 7.64235046,8.89533774 7.738,8.837 L8.67,10.455 L7.727,12.092 C7.63376162,12.0384071 7.5285215,12.0091737 7.421,12.007 C7.15436875,12.0065954 6.9137667,12.1668988 6.81145087,12.4131179 C6.70913503,12.6593371 6.76526917,12.9429486 6.95366294,13.1316287 C7.14205671,13.3203087 7.42558265,13.3768735 7.67195687,13.2749317 C7.91833108,13.1729899 8.07899969,12.9326316 8.079,12.666 C8.079,12.66 8.079,12.655 8.079,12.649 L9.937,12.649 L10.879,14.285 C10.6084112,14.4193963 10.4631453,14.7199431 10.5259337,15.0154736 C10.5887221,15.3110041 10.8436328,15.5265293 11.1454895,15.5393038 C11.4473462,15.5520783 11.7195548,15.3588606 11.8070875,15.0696917 C11.8946203,14.7805228 11.7752664,14.4687773 11.517,14.312 L12.474,12.649 L14.25,12.649 C14.25,12.655 14.25,12.66 14.25,12.666 C14.2474339,12.9590913 14.4370624,13.2193018 14.716855,13.3066241 C14.9966476,13.3939464 15.300619,13.2877866 15.465216,13.0452646 C15.6298129,12.8027426 15.6162174,12.4810538 15.4317446,12.2532845 C15.2472718,12.0255151 14.935427,11.9453816 14.664,12.056 L13.742,10.456 L14.658,8.865 C14.7442748,8.90732955 14.8389069,8.92987726 14.935,8.931 C15.2989556,8.93099996 15.5939999,8.63595562 15.5939999,8.272 C15.5939999,7.90804438 15.2989556,7.61300004 14.935,7.613 L14.926,7.612 Z"></path>
            </g>
        </g>
    </g>
</svg>